# xmcd
#
# Track frame offsets:
#	150
#	17512
#	31049
#	48036
#	60823
#	76910
#	94197
#	108934
#	124796
#	140283
#	155845
#	171707
#	187419
#	204181
#
# Disc length: 2903 seconds
#
# Revision: 1
# Processed by: cddbd v1.5.2PL0 Copyright (c) Steve Scherf et al.
# Submitted via: EasyCDDAExtractor 7.0.3.1
#
DISCID=af0b550e
DTITLE=Various Artist - Hitz Country 2010 vol-4
DYEAR=2010
DGENRE=Country
TTITLE0=Lady Antebellum - Our Kind Of Love
TTITLE1=Billy Currington - Pretty Good At Drinkin Beer
TTITLE2=Keith Urban - I'm In
TTITLE3=Alan Jackson - Hard Hat and A Hammer
TTITLE4=Dierks Bentley - Up On the Ridge
TTITLE5=Josh Thompson - Way Out Here
TTITLE6=Fast Ryde - Top Down
TTITLE7=Chris Janson - Til A Womwn Comes Along
TTITLE8=Kellie Pickler - Makin Me Fall In Love Again
TTITLE9=Chuck Wicks - Hold That Thought
TTITLE10=Jake Owen - Tell Me
TTITLE11=Easton Corbin - Roll With It
TTITLE12=Band Perry - If I Die Young
TTITLE13=Jason Aldean - Crazy Town
EXTD=
EXTT0=
EXTT1=
EXTT2=
EXTT3=
EXTT4=
EXTT5=
EXTT6=
EXTT7=
EXTT8=
EXTT9=
EXTT10=
EXTT11=
EXTT12=
EXTT13=
PLAYORDER=
